<svg width="15" height="9" viewBox="0 0 15 9" fill="#ADB2B6" xmlns="http://www.w3.org/2000/svg">
<path d="M1.11478 2.63387H1.79587C1.96615 2.63387 2.07966 2.74873 2.07966 2.92103L2.67561 5.13218L12.0406 5.13218L12.9487 0.365287C12.9487 0.19299 13.0622 0.078125 13.2041 0.078125L13.8852 0.0781251C14.0271 0.0781251 14.1406 0.19299 14.1406 0.365287L13.2325 8.29096C13.2325 8.46326 13.119 8.57812 12.9771 8.57812H12.296C12.1541 8.57812 12.0406 8.46326 12.0406 8.29096L12.0406 6.68285L2.67561 6.68285L2.67561 8.29096C2.67561 8.46326 2.5621 8.57812 2.42021 8.57812H1.73912C1.59722 8.57812 1.45533 8.46326 1.45533 8.29096L0.859375 2.92103C0.859375 2.74873 0.97289 2.63387 1.11478 2.63387ZM8.97569 4.84502L2.93102 4.84502C2.76075 4.84502 2.64724 4.70144 2.64724 4.50042V4.01225C2.64724 3.81123 2.76075 3.66765 2.93102 3.66765L8.97569 3.66765C9.11759 3.66765 9.25948 3.81123 9.25948 4.01225V4.50042C9.25948 4.70144 9.14597 4.84502 8.97569 4.84502ZM10.65 4.73015C10.3946 4.9886 9.94057 4.93117 9.65678 4.58657C9.373 4.24198 9.34462 3.7538 9.60003 3.49535L10.9622 2.14569C11.246 1.88725 11.6717 1.9734 11.9838 2.28927C12.2676 2.63387 12.296 3.12204 12.0122 3.38049L10.65 4.73015Z"/>
</svg>
