<svg width="18" height="12" viewBox="0 0 18 12" fill="#74777C" xmlns="http://www.w3.org/2000/svg">
<path d="M2.33522 0C1.4707 0 0.769287 0.671875 0.769287 1.5C0.769287 1.97187 1.00091 2.41562 1.39566 2.7L8.49456 7.8C8.86647 8.06563 9.3754 8.06563 9.74731 7.8L16.8462 2.7C17.241 2.41562 17.4726 1.97187 17.4726 1.5C17.4726 0.671875 16.7712 0 15.9066 0H2.33522ZM0.769287 3.5V10C0.769287 11.1031 1.70559 12 2.8572 12H15.3847C16.5363 12 17.4726 11.1031 17.4726 10V3.5L10.3737 8.6C9.62986 9.13438 8.61201 9.13438 7.86819 8.6L0.769287 3.5Z"/>
</svg>
