<svg width="18" height="16" viewBox="0 0 18 16" fill="#74777C" xmlns="http://www.w3.org/2000/svg">
<path d="M12.0932 0.769421C12.3444 0.188196 13.0066 -0.121165 13.6395 0.0444527L16.5102 0.79442C17.0779 0.944413 17.4726 1.43814 17.4726 2.00062C17.4726 9.73153 10.9286 16 2.85784 16C2.27064 16 1.75521 15.6219 1.59863 15.0782L0.815694 12.3283C0.642796 11.7221 0.965756 11.0877 1.57253 10.8471L4.70426 9.59716C5.236 9.38467 5.85256 9.53154 6.21467 9.95964L7.5326 11.5002C9.82921 10.4596 11.6887 8.67845 12.775 6.47854L11.1667 5.21923C10.7198 4.86924 10.5665 4.28177 10.7883 3.77241L12.0932 0.772546V0.769421Z"/>
</svg>
