<svg width="30" height="27" viewBox="0 0 30 27" fill="#ADB2B6" xmlns="http://www.w3.org/2000/svg">
<path d="M26.25 0.5C28.3184 0.5 30 2.16562 30 4.21429V22.7857C30 24.8344 28.3184 26.5 26.25 26.5H3.75C1.68164 26.5 0 24.8344 0 22.7857V4.21429C0 2.16562 1.68164 0.5 3.75 0.5H26.25ZM21.0938 4.21429V7.92857H26.25V4.21429H21.0938ZM17.8125 4.21429H12.6562V7.92857H17.8125V4.21429ZM3.75 4.21429V7.92857H8.90625V4.21429H3.75ZM26.25 11.6429H21.0938V15.3571H26.25V11.6429ZM12.6562 11.6429V15.3571H17.8125V11.6429H12.6562ZM8.90625 11.6429H3.75V15.3571H8.90625V11.6429ZM21.0938 19.0714V22.7857H26.25V19.0714H21.0938ZM17.8125 19.0714H12.6562V22.7857H17.8125V19.0714ZM3.75 19.0714V22.7857H8.90625V19.0714H3.75Z"/>
</svg>
