<svg width="13" height="13" viewBox="0 0 13 13" fill="white" xmlns="http://www.w3.org/2000/svg">
<path d="M5.53747 0.757813L12.5402 0.757813C12.7355 0.757813 12.875 0.898347 12.875 1.0951L12.875 12.5065C12.875 12.7032 12.7355 12.8438 12.5402 12.8438L5.20268 12.8437L5.20268 1.09509C5.20268 0.898347 5.34218 0.757812 5.53747 0.757813ZM9.24809 10.7076L12.0101 10.7076V9.55525L9.24809 9.55525V10.7076ZM9.24809 8.85258L12.0101 8.85258V7.7002H9.24809V8.85258ZM9.24809 6.99753H12.0101V5.84515H9.24809V6.99753ZM9.24809 5.14248H12.0101V3.9901L9.24809 3.9901V5.14248ZM9.24809 3.28743H12.0101V2.13505L9.24809 2.13505V3.28743ZM6.06756 10.7076H8.82959V9.55525H6.06756L6.06756 10.7076ZM6.06756 8.85258H8.82959V7.7002L6.06756 7.7002V8.85258ZM6.06756 6.99753L8.8296 6.99753V5.84515L6.06756 5.84515V6.99753ZM6.06756 5.14248L8.8296 5.14248V3.9901L6.06756 3.9901V5.14248ZM6.06756 3.28743L8.8296 3.28743V2.13505L6.06756 2.13505V3.28743ZM0.459793 4.46791L4.86789 4.46791L4.86789 12.8437L0.459792 12.8437C0.264497 12.8437 0.125 12.7032 0.125 12.5065L0.125001 4.8052C0.125001 4.60845 0.264497 4.46791 0.459793 4.46791ZM0.878282 11.607H4.08671V10.4547H0.878282L0.878282 11.607ZM0.878282 9.92064H4.08671V8.76826H0.878283L0.878282 9.92064ZM0.878283 8.23423H4.08671V7.05374L0.878283 7.05374L0.878283 8.23423ZM0.878283 6.51971L4.08671 6.51971V5.36733L0.878283 5.36733L0.878283 6.51971Z"/>
</svg>
