<svg width="15" height="14" viewBox="0 0 15 14" fill="#ADB2B6" xmlns="http://www.w3.org/2000/svg">
<path d="M4.30381 3.54811L7.12763 6.39631L13.3338 6.39631V5.71522H14.1406L14.1406 13.6406L6.13464 13.6406V12.8667L6.87938 12.8667L6.87938 7.23219L3.74525 4.10537L2.41092 5.43659L2.41092 2.24785L5.60711 2.24785L4.30381 3.54811ZM2.22474 0.359375L2.22474 1.1643L1.63515 1.1643V1.75251L0.859376 1.75251L0.859376 0.359375L2.22474 0.359375ZM13.3338 1.1643H12.7442V0.359376L14.1406 0.359376V1.75251L13.3338 1.75251V1.1643ZM11.8754 0.359376L10.8824 0.359376V1.1643L11.8754 1.1643V0.359376ZM10.2928 0.359376L9.2998 0.359376V1.1643L10.2928 1.1643V0.359376ZM8.71021 0.359376L7.71722 0.359376V1.1643L8.71021 1.1643V0.359376ZM7.12763 0.359376L6.13464 0.359375V1.1643L7.12763 1.1643V0.359376ZM5.54505 0.359375L4.55206 0.359375V1.1643L5.54505 1.1643V0.359375ZM5.54505 12.8667H4.55206V13.6406H5.54505V12.8667ZM3.93144 0.359375L2.93845 0.359375V1.1643L3.93144 1.1643V0.359375ZM3.93144 12.8667H2.93845V13.6406H3.93144V12.8667ZM14.1406 2.46456H13.3338V3.45524H14.1406V2.46456ZM1.63515 2.46456H0.859376L0.859376 3.45524H1.63515L1.63515 2.46456ZM14.1406 4.07441H13.3338V5.06509H14.1406V4.07441ZM1.63515 4.07441H0.859376L0.859376 5.06509H1.63515L1.63515 4.07441ZM1.63515 5.71522H0.859376L0.859376 6.70589H1.63515L1.63515 5.71522ZM1.63515 7.32507H0.859376L0.859375 8.31574H1.63515V7.32507ZM1.63515 8.93491H0.859375L0.859375 9.92559H1.63515L1.63515 8.93491ZM1.63515 10.5757H0.859375L0.859375 11.5664H1.63515L1.63515 10.5757ZM1.63515 12.8667H2.22474L2.22474 13.6406H0.859375L0.859375 12.2475H1.63515L1.63515 12.8667Z"/>
</svg>
