<svg width="16" height="13" viewBox="0 0 16 13" fill="none" xmlns="http://www.w3.org/2000/svg">
<path d="M5.13004 8.8914L13.5964 0.63484C13.8595 0.378281 14.1943 0.25 14.6009 0.25C15.0075 0.25 15.3423 0.378281 15.6054 0.63484C15.8685 0.8914 16 1.21793 16 1.61443C16 2.01093 15.8685 2.33746 15.6054 2.59402L6.13453 11.8302C5.84753 12.1101 5.51271 12.25 5.13004 12.25C4.74738 12.25 4.41256 12.1101 4.12556 11.8302L0.394618 8.19169C0.131539 7.93513 0 7.6086 0 7.2121C0 6.8156 0.131539 6.48907 0.394618 6.23251C0.657697 5.97595 0.992526 5.84767 1.3991 5.84767C1.80568 5.84767 2.14051 5.97595 2.40359 6.23251L5.13004 8.8914Z" fill="#74777C"/>
</svg>
