<svg width="30" height="27" viewBox="0 0 30 27" fill="#ADB2B6" xmlns="http://www.w3.org/2000/svg">
<path d="M0 4.05513C0 2.02598 1.68164 0.376221 3.75 0.376221H26.25C28.3184 0.376221 30 2.02598 30 4.05513V22.4497C30 24.4788 28.3184 26.1286 26.25 26.1286H3.75C1.68164 26.1286 0 24.4788 0 22.4497V4.05513ZM3.75 4.05513V7.73404H7.5V4.05513H3.75ZM26.25 4.05513H11.25V7.73404H26.25V4.05513ZM3.75 11.413V15.0919H7.5V11.413H3.75ZM26.25 11.413H11.25V15.0919H26.25V11.413ZM3.75 18.7708V22.4497H7.5V18.7708H3.75ZM26.25 18.7708H11.25V22.4497H26.25V18.7708Z"/>
</svg>
