<svg width="16" height="17" viewBox="0 0 16 17" fill="none" xmlns="http://www.w3.org/2000/svg">
<g clip-path="url(#clip0_316_1901)">
<path d="M0 8.25C0 3.83172 3.58172 0.25 8 0.25C12.4183 0.25 16 3.83172 16 8.25C16 12.6683 12.4183 16.25 8 16.25C3.58172 16.25 0 12.6683 0 8.25Z" fill="#DF434A"/>
<path d="M6.20628 10.2311L11.4978 4.03863C11.6622 3.84621 11.8714 3.75 12.1256 3.75C12.3797 3.75 12.5889 3.84621 12.7534 4.03863C12.9178 4.23105 13 4.47595 13 4.77332C13 5.0707 12.9178 5.3156 12.7534 5.50802L6.83408 12.4351C6.65471 12.645 6.44544 12.75 6.20628 12.75C5.96711 12.75 5.75785 12.645 5.57848 12.4351L3.24664 9.70627C3.08221 9.51385 3 9.26895 3 8.97157C3 8.6742 3.08221 8.4293 3.24664 8.23688C3.41106 8.04446 3.62033 7.94825 3.87444 7.94825C4.12855 7.94825 4.33782 8.04446 4.50224 8.23688L6.20628 10.2311Z" fill="white"/>
</g>
<defs>
<clipPath id="clip0_316_1901">
<path d="M0 8.25C0 3.83172 3.58172 0.25 8 0.25C12.4183 0.25 16 3.83172 16 8.25C16 12.6683 12.4183 16.25 8 16.25C3.58172 16.25 0 12.6683 0 8.25Z" fill="white"/>
</clipPath>
</defs>
</svg>
