<svg width="15" height="10" viewBox="0 0 15 10" fill="#ADB2B6" xmlns="http://www.w3.org/2000/svg">
<path d="M4.79873 9.20932H4.12341V9.57812H4.79873V9.20932ZM10.961 9.20932H10.2857L10.2857 9.57812H10.961L10.961 9.20932ZM1.28145 4.09879L12.1428 4.09879V0.937629C12.1428 0.674199 11.8614 0.463456 11.5238 0.463456C11.2424 0.463456 10.9891 0.621513 10.9329 0.832257L10.3982 0.753228C10.5389 0.331741 10.9891 0.015625 11.5238 0.015625C12.1709 0.0156251 12.6774 0.437113 12.6774 0.963972V4.09879H13.7186C13.9718 4.09879 14.1406 4.28319 14.1406 4.52027V4.91542C14.1406 5.15251 13.9718 5.33691 13.7186 5.33691H13.4372C13.409 5.49496 13.3809 5.67936 13.3246 5.89011L13.0151 7.25994C12.593 8.73515 11.7207 8.97224 10.6796 8.99858H4.34852C4.20783 8.99858 4.06713 8.99858 3.92644 8.97224C3.25113 8.89321 2.37884 8.52441 1.95677 7.36531L1.47842 5.33691H1.25331C1.0282 5.31056 0.859375 5.1525 0.859375 4.91542L0.859375 4.52027C0.859375 4.28319 1.0282 4.09879 1.28145 4.09879ZM11.58 2.04403C11.5519 2.09672 11.5519 2.12306 11.5238 2.17575L9.16016 1.72792V1.5962C9.24457 1.2274 9.46968 0.937629 9.7792 0.779571L11.3268 1.06934C11.5519 1.33277 11.6363 1.67523 11.58 2.04403Z"/>
</svg>
