<svg width="15" height="15" viewBox="0 0 15 15" fill="none" xmlns="http://www.w3.org/2000/svg">
<path fill-rule="evenodd" clip-rule="evenodd" d="M0.5 1.65093C0.5 0.87575 1.12627 0.25 1.9 0.25H13.1C13.8737 0.25 14.5 0.87575 14.5 1.65093V10.05C14.5 10.8252 13.8737 11.4509 13.1 11.4509H7.65587L4.04667 14.1566C3.97733 14.2086 3.89489 14.2403 3.80858 14.2481C3.72226 14.2559 3.63548 14.2395 3.55797 14.2007C3.48045 14.1619 3.41526 14.1023 3.3697 14.0285C3.32413 13.9548 3.3 13.8697 3.3 13.783V11.45H1.9C1.12627 11.45 0.5 10.8242 0.5 10.0491V1.65093ZM4.23333 3.98302H10.7667V4.91698H4.23333V3.98302ZM4.23333 6.78302H8.9V7.71698H4.23333V6.78302Z" fill="#ADB2B6"/>
</svg>
