<svg width="12" height="13" viewBox="0 0 12 13" fill="none" xmlns="http://www.w3.org/2000/svg">
<path d="M7.69296 6.25221L11.6419 2.30328C11.7547 2.19232 11.8444 2.06012 11.9059 1.91431C11.9673 1.7685 11.9993 1.61196 12 1.45372C12.0007 1.29549 11.97 1.13869 11.9097 0.992364C11.8495 0.846042 11.7609 0.713095 11.649 0.601191C11.5371 0.489288 11.4042 0.400642 11.2579 0.340368C11.1116 0.280094 10.9548 0.249384 10.7966 0.250009C10.6383 0.250635 10.4818 0.282584 10.336 0.344013C10.1901 0.405442 10.0579 0.495136 9.94691 0.607921L5.99799 4.55684L2.04907 0.60832C1.93775 0.497001 1.8056 0.408698 1.66015 0.348453C1.51471 0.288207 1.35882 0.257199 1.20139 0.257199C1.04396 0.257199 0.888073 0.288207 0.742628 0.348453C0.597182 0.408698 0.465027 0.497001 0.353708 0.60832C0.128889 0.83314 0.00258705 1.13806 0.00258705 1.456C0.00258705 1.77394 0.128889 2.07886 0.353708 2.30368L4.30263 6.25221L0.344119 10.2107C0.122369 10.4362 -0.00131423 10.7401 1.05333e-05 11.0563C0.00133529 11.3725 0.127561 11.6754 0.351191 11.899C0.574822 12.1226 0.87774 12.2487 1.19396 12.25C1.51018 12.2512 1.81409 12.1275 2.03948 11.9057L5.99759 7.94757L9.94612 11.8961C10.1803 12.1302 10.4871 12.2473 10.7936 12.2473C11.1001 12.2473 11.4069 12.1302 11.6411 11.8961C11.7524 11.7848 11.8408 11.6527 11.9011 11.5073C11.9613 11.3619 11.9924 11.206 11.9924 11.0486C11.9924 10.8912 11.9613 10.7353 11.9011 10.5899C11.8408 10.4445 11.7524 10.3124 11.6411 10.2011L7.69296 6.25221Z" fill="#74777C"/>
</svg>
