<svg width="17" height="8" viewBox="0 0 17 8" fill="white" xmlns="http://www.w3.org/2000/svg">
<path d="M9.01384 0.160898C9.01384 0.0963323 9.07895 0.0317667 9.1766 0.0317667L10.0555 0.0317668C10.1206 0.0317668 10.1857 0.0963324 10.1857 0.160898V0.806553L9.01384 1.77504V0.160898ZM10.6089 0.806553L11.2925 0.193181H11.3251L10.6089 0.806553ZM2.66606 0.160897C2.66606 0.0963317 2.73116 0.0317662 2.82882 0.0317662L3.70774 0.0317662C3.77285 0.0317662 3.83795 0.0963318 3.83795 0.160897V0.806553L2.66606 1.77504L2.66606 0.160897ZM0.712892 3.712L2.015 2.61439L3.54498 1.35536L4.26114 0.806553L4.94475 0.19318L5.00985 0.160897C5.23772 -0.0327992 5.66091 -0.0327992 5.88878 0.160898L8.62321 2.42069L9.89277 1.35536L10.6089 0.806553L11.3251 0.193181H11.2925L11.3576 0.160898C11.5855 -0.0327986 12.0087 -0.0327986 12.2366 0.160898L16.5335 3.712C16.5986 3.77657 16.6312 3.9057 16.5661 3.97027L16.1754 4.38994C16.1429 4.45451 16.1103 4.45451 16.0452 4.45451C16.0127 4.48679 15.9476 4.45451 15.915 4.42222L11.8134 1.03253L8.62321 3.64744L7.87449 3.03407L5.46559 1.03253L1.33139 4.42222C1.29884 4.45451 1.26629 4.45451 1.20118 4.45451C1.13608 4.45451 1.10352 4.45451 1.07097 4.38994L0.712892 3.97026C0.647786 3.9057 0.647786 3.77657 0.712892 3.712ZM5.46559 1.54906L7.58152 3.29233L8.33023 3.9057L8.62321 4.16396L8.91618 3.9057L9.6649 3.29233L11.8134 1.54906L15.2314 4.35766V7.23083C15.2314 7.42452 15.0686 7.58594 14.8408 7.58594L12.5621 7.58594V5.32614H11.0321V7.58594L6.2143 7.58594L6.2143 5.32614H4.68433V7.58594L2.40563 7.58594C2.21032 7.58594 2.015 7.42452 2.015 7.23083L2.015 4.35766L5.46559 1.54906Z"/>
</svg>
