<svg width="15" height="12" viewBox="0 0 15 12" fill="white" xmlns="http://www.w3.org/2000/svg">
<path d="M3.41569 0.256709C3.41569 0.132298 3.50968 0.0389893 3.635 0.0389892L4.98224 0.0389891C5.10756 0.0389891 5.20156 0.132297 5.20156 0.256709V1.2209L3.41569 2.68273L3.41569 0.256709ZM2.41309 4.02015L4.73159 2.09177L5.79685 1.2209L6.89343 0.318914L6.95609 0.256709C7.33207 -0.0543195 7.92736 -0.0543195 8.33466 0.256708L14.8202 5.63749C14.9455 5.7308 14.9768 5.94852 14.8828 6.04183L14.3189 6.72609C14.2562 6.75719 14.1936 6.8194 14.1309 6.8194C14.0369 6.8194 13.9742 6.78829 13.9116 6.75719L7.64538 1.56303L1.37917 6.75719C1.31651 6.7883 1.25384 6.8194 1.15985 6.8194C1.06586 6.8194 1.0032 6.75719 0.940534 6.72609L0.407906 6.04183C0.282582 5.94852 0.313913 5.7308 0.439237 5.63749L2.41309 4.02015ZM7.64538 2.3717L12.8463 6.63278L12.8463 11.0183C12.8463 11.3293 12.5957 11.5781 12.2824 11.5781H8.80463V8.12572H6.48613L6.48613 11.5781H3.00838C2.66374 11.5781 2.41309 11.3293 2.41309 11.0183L2.41309 6.63278L7.64538 2.3717Z"/>
</svg>
