<svg width="15" height="12" viewBox="0 0 15 12" fill="white" xmlns="http://www.w3.org/2000/svg">
<path d="M2.23876 0.0234375L13.0962 0.0234384C13.3184 0.0234385 13.4771 0.212455 13.4771 0.432973V1.8821L1.8578 1.8821L1.8578 0.432972C1.8578 0.212454 2.01653 0.0234375 2.23876 0.0234375ZM14.1438 5.63092L14.1438 11.3329C14.1438 11.5534 13.9533 11.7109 13.6994 11.7109L5.50869 11.7109L5.50869 7.45807L2.8102 7.45807L2.8102 11.7109H1.69906C1.47684 11.7109 1.28636 11.5534 1.28636 11.3329L1.28636 5.63092L14.1438 5.63092ZM6.96904 9.91528L12.62 9.91528V7.45807L6.96904 7.45807L6.96904 9.91528ZM1.8578 2.16562H2.90545L2.01653 3.99278L2.01653 4.84335H3.28641V3.99278L3.92134 2.16562H4.93724L4.52453 3.99278V4.84335L5.76266 4.84335V3.99278L5.98489 2.16562L7.03254 2.16562L7.03254 4.84335H8.33416L8.33416 2.16562L9.35006 2.16562L9.60403 3.99278V4.84335L10.8422 4.84335V3.99278L10.4612 2.16562H11.4136L12.112 3.99278V4.84335H13.3502V3.99278L12.4295 2.16562H13.4771L14.9375 3.99278V5.15838L0.460938 5.15838L0.460938 3.99278L1.8578 2.16562Z"/>
</svg>
