<svg width="190" height="150" viewBox="0 0 190 150" fill="none" xmlns="http://www.w3.org/2000/svg">
<path d="M7.20606 148.968V132.28H7.22784L16.138 144.916L14.7873 144.611L23.6756 132.28H23.7192V148.968H20.5603V139.404L20.7564 141.038L15.3319 148.75H15.2883L9.71135 141.038L10.256 139.535V148.968H7.20606Z" fill="white"/>
<path d="M26.8833 140.972C26.8833 139.869 27.0939 138.823 27.5151 137.835C27.9363 136.848 28.5172 135.976 29.2579 135.221C30.0131 134.451 30.8845 133.849 31.8721 133.413C32.8597 132.977 33.9199 132.759 35.0527 132.759C36.171 132.759 37.224 132.977 38.2116 133.413C39.1992 133.849 40.0706 134.451 40.8258 135.221C41.5955 135.976 42.191 136.848 42.6122 137.835C43.0479 138.823 43.2657 139.869 43.2657 140.972C43.2657 142.105 43.0479 143.165 42.6122 144.153C42.191 145.141 41.5955 146.012 40.8258 146.767C40.0706 147.508 39.1992 148.089 38.2116 148.51C37.224 148.931 36.171 149.142 35.0527 149.142C33.9199 149.142 32.8597 148.931 31.8721 148.51C30.8845 148.089 30.0131 147.508 29.2579 146.767C28.5172 146.012 27.9363 145.141 27.5151 144.153C27.0939 143.165 26.8833 142.105 26.8833 140.972ZM30.1511 140.972C30.1511 141.684 30.2745 142.352 30.5214 142.977C30.7828 143.587 31.1387 144.131 31.5889 144.611C32.0536 145.075 32.5837 145.438 33.1792 145.7C33.7892 145.961 34.45 146.092 35.1617 146.092C35.8443 146.092 36.476 145.961 37.057 145.7C37.6524 145.438 38.168 145.075 38.6037 144.611C39.0394 144.131 39.3807 143.587 39.6276 142.977C39.8745 142.352 39.998 141.684 39.998 140.972C39.998 140.246 39.8672 139.571 39.6058 138.946C39.3589 138.322 39.0104 137.777 38.5601 137.313C38.1244 136.833 37.6089 136.463 37.0134 136.201C36.4179 135.94 35.7716 135.809 35.0745 135.809C34.3774 135.809 33.7311 135.94 33.1356 136.201C32.5402 136.463 32.0173 136.833 31.5671 137.313C31.1169 137.777 30.7683 138.322 30.5214 138.946C30.2745 139.571 30.1511 140.246 30.1511 140.972Z" fill="white"/>
<path d="M47.7482 132.934L52.432 144.48L50.602 144.109L54.8501 132.934H58.5972L51.2774 149.708L43.9576 132.934H47.7482Z" fill="white"/>
<path d="M61.371 132.934H64.5299V148.968H61.371V132.934Z" fill="white"/>
<path d="M83.0246 149.621L70.8685 138.641L71.8053 139.164L71.8706 148.968H68.6682V132.302H68.7989L80.6936 143.238L79.9965 142.933L79.9311 132.934H83.1117V149.621H83.0246Z" fill="white"/>
<path d="M100.247 147.355C100.058 147.559 99.7601 147.769 99.3534 147.987C98.9467 148.191 98.4747 148.379 97.9374 148.554C97.4145 148.728 96.8772 148.866 96.3253 148.968C95.7734 149.084 95.2505 149.142 94.7567 149.142C93.4496 149.142 92.2732 148.953 91.2275 148.575C90.1819 148.183 89.2887 147.646 88.548 146.963C87.8073 146.266 87.2409 145.446 86.8487 144.502C86.4566 143.558 86.2605 142.526 86.2605 141.408C86.2605 139.941 86.4784 138.67 86.9141 137.596C87.3643 136.506 87.967 135.606 88.7223 134.894C89.492 134.168 90.3707 133.631 91.3583 133.282C92.3604 132.934 93.4061 132.759 94.4953 132.759C95.5265 132.759 96.4705 132.876 97.3274 133.108C98.1843 133.326 98.9104 133.602 99.5059 133.936L98.482 136.877C98.2206 136.732 97.872 136.586 97.4363 136.441C97.0006 136.296 96.5576 136.18 96.1074 136.093C95.6572 135.991 95.2578 135.94 94.9092 135.94C94.0378 135.94 93.2681 136.049 92.6 136.267C91.9319 136.485 91.3655 136.811 90.9008 137.247C90.4505 137.683 90.1093 138.228 89.8769 138.881C89.6445 139.52 89.5283 140.268 89.5283 141.125C89.5283 141.88 89.659 142.563 89.9204 143.173C90.1819 143.768 90.545 144.277 91.0097 144.698C91.489 145.119 92.0481 145.438 92.6872 145.656C93.3407 145.874 94.0596 145.983 94.8439 145.983C95.2941 145.983 95.708 145.954 96.0856 145.896C96.4632 145.823 96.7828 145.714 97.0442 145.569V143.63H94.2775V140.58H100.247V147.355Z" fill="white"/>
<path d="M110.919 132.934H121.856V135.984H114.078V139.404H120.962V142.454H114.078V145.918H122.161V148.968H110.919V132.934Z" fill="white"/>
<path d="M133.99 136.811C133.38 136.477 132.756 136.201 132.117 135.984C131.492 135.766 130.904 135.657 130.352 135.657C129.67 135.657 129.132 135.795 128.74 136.071C128.348 136.347 128.152 136.761 128.152 137.313C128.152 137.69 128.297 138.031 128.588 138.336C128.893 138.627 129.277 138.888 129.742 139.121C130.221 139.353 130.715 139.564 131.224 139.752C131.688 139.927 132.146 140.137 132.596 140.384C133.061 140.617 133.475 140.914 133.838 141.277C134.201 141.626 134.491 142.069 134.709 142.606C134.927 143.129 135.036 143.775 135.036 144.545C135.036 145.359 134.825 146.114 134.404 146.811C133.983 147.508 133.366 148.074 132.552 148.51C131.739 148.931 130.737 149.142 129.546 149.142C128.936 149.142 128.312 149.084 127.673 148.968C127.048 148.837 126.431 148.648 125.821 148.401C125.211 148.14 124.623 147.813 124.056 147.421L125.45 144.959C125.828 145.235 126.235 145.482 126.67 145.7C127.121 145.903 127.571 146.063 128.021 146.179C128.471 146.295 128.885 146.353 129.263 146.353C129.64 146.353 130.018 146.303 130.396 146.201C130.788 146.085 131.107 145.896 131.354 145.634C131.616 145.373 131.746 145.01 131.746 144.545C131.746 144.226 131.637 143.935 131.42 143.674C131.216 143.412 130.933 143.173 130.57 142.955C130.221 142.737 129.837 142.548 129.415 142.388C128.922 142.2 128.413 141.982 127.89 141.735C127.368 141.488 126.874 141.19 126.409 140.842C125.959 140.479 125.588 140.036 125.298 139.513C125.022 138.975 124.884 138.322 124.884 137.552C124.884 136.623 125.087 135.817 125.494 135.134C125.915 134.451 126.503 133.914 127.259 133.522C128.014 133.115 128.885 132.89 129.873 132.847C131.165 132.847 132.211 132.999 133.01 133.304C133.823 133.609 134.549 133.972 135.188 134.393L133.99 136.811Z" fill="white"/>
<path d="M137.04 132.934H147.846V135.984H143.946V148.968H140.787V135.984H137.04V132.934Z" fill="white"/>
<path d="M147.788 148.968L155.021 132.302H155.195L162.428 148.968H158.768L154.15 137.247L156.437 135.679L150.904 148.968H147.788ZM152.734 143.173H157.548L158.659 145.831H151.753L152.734 143.173Z" fill="white"/>
<path d="M162.378 132.934H173.184V135.984H169.284V148.968H166.125V135.984H162.378V132.934Z" fill="white"/>
<path d="M176.232 132.934H187.168V135.984H179.391V139.404H186.275V142.454H179.391V145.918H187.473V148.968H176.232V132.934Z" fill="white"/>
<path d="M66.2159 0.291626L0 48.5811V122.388H29.9851V106.308L16.0271 106.257V56.3843L66.2159 20.1134L116.404 56.3843V106.257L95.0001 106.308V122.388H132.431V48.5811L66.2159 0.291626Z" fill="white"/>
<path d="M123.784 0.291626L57.5689 48.5811V122.388H95.0001V106.308L73.5959 106.257V56.3843L123.784 20.1134L173.973 56.3843V106.257L160.355 106.308V122.388H190V48.5811L123.784 0.291626Z" fill="white"/>
<path d="M93.1215 61.3404H81.9096V72.5523H93.1215V61.3404Z" fill="white"/>
<path d="M107.567 61.3404H96.355V72.5523H107.567V61.3404Z" fill="white"/>
<path d="M93.1215 75.5076H81.9096V86.7195H93.1215V75.5076Z" fill="white"/>
<path d="M107.567 75.5076H96.355V86.7195H107.567V75.5076Z" fill="white"/>
<path d="M160.359 122.388H144.332V56.6348L160.359 68.2939V122.388Z" fill="white"/>
<path d="M29.9851 122.388L45.9124 122.388V56.6348L29.8854 68.2939L29.9851 122.388Z" fill="white"/>
</svg>
