<svg width="75" height="60" viewBox="0 0 75 60" fill="none" xmlns="http://www.w3.org/2000/svg">
<path d="M2.84448 59.2174V52.6256H2.85308L6.37025 57.6168L5.83708 57.4964L9.34562 52.6256H9.36283V59.2174H8.11589V55.4396L8.1933 56.085L6.05205 59.1313H6.03484L3.83341 56.085L4.04841 55.4913V59.2174H2.84448Z" fill="white"/>
<path d="M10.6118 56.059C10.6118 55.6233 10.6949 55.2101 10.8612 54.8198C11.0275 54.43 11.2568 54.0855 11.5492 53.7873C11.8473 53.4832 12.1912 53.2454 12.5811 53.0731C12.9709 52.9009 13.3894 52.8148 13.8366 52.8148C14.278 52.8148 14.6937 52.9009 15.0835 53.0731C15.4734 53.2454 15.8173 53.4832 16.1154 53.7873C16.4193 54.0855 16.6543 54.43 16.8206 54.8198C16.9926 55.2101 17.0786 55.6233 17.0786 56.059C17.0786 56.5065 16.9926 56.9252 16.8206 57.3154C16.6543 57.7057 16.4193 58.0498 16.1154 58.348C15.8173 58.6407 15.4734 58.8702 15.0835 59.0365C14.6937 59.2028 14.278 59.2861 13.8366 59.2861C13.3894 59.2861 12.9709 59.2028 12.5811 59.0365C12.1912 58.8702 11.8473 58.6407 11.5492 58.348C11.2568 58.0498 11.0275 57.7057 10.8612 57.3154C10.6949 56.9252 10.6118 56.5065 10.6118 56.059ZM11.9017 56.059C11.9017 56.3402 11.9504 56.6041 12.0479 56.8509C12.1511 57.0919 12.2916 57.3068 12.4693 57.4964C12.6527 57.6796 12.862 57.823 13.097 57.9265C13.3378 58.0296 13.5987 58.0814 13.8796 58.0814C14.1491 58.0814 14.3984 58.0296 14.6277 57.9265C14.8628 57.823 15.0663 57.6796 15.2383 57.4964C15.4103 57.3068 15.545 57.0919 15.6425 56.8509C15.7399 56.6041 15.7887 56.3402 15.7887 56.059C15.7887 55.7722 15.737 55.5056 15.6339 55.2587C15.5364 55.0122 15.3988 54.7969 15.2211 54.6136C15.0491 54.424 14.8456 54.2779 14.6105 54.1744C14.3755 54.0713 14.1204 54.0196 13.8452 54.0196C13.57 54.0196 13.3149 54.0713 13.0798 54.1744C12.8448 54.2779 12.6384 54.424 12.4607 54.6136C12.283 54.7969 12.1454 55.0122 12.0479 55.2587C11.9504 55.5056 11.9017 55.7722 11.9017 56.059Z" fill="white"/>
<path d="M18.848 52.8839L20.6968 57.4446L19.9745 57.298L21.6514 52.8839H23.1305L20.2411 59.5096L17.3517 52.8839H18.848Z" fill="white"/>
<path d="M24.2253 52.8839H25.4723V59.2173H24.2253V52.8839Z" fill="white"/>
<path d="M32.7728 59.4753L27.9744 55.1382L28.3442 55.3448L28.3699 59.2173H27.1058V52.6343H27.1574L31.8527 56.954L31.5775 56.8335L31.5517 52.8839H32.8072V59.4753H32.7728Z" fill="white"/>
<path d="M39.5712 58.5802C39.4966 58.6608 39.379 58.7438 39.2184 58.8299C39.0579 58.9105 38.8716 58.9847 38.6595 59.0538C38.4531 59.1226 38.241 59.1771 38.0231 59.2174C37.8053 59.2632 37.5989 59.2861 37.4039 59.2861C36.888 59.2861 36.4236 59.2114 36.0108 59.0621C35.5981 58.9073 35.2455 58.6952 34.9531 58.4254C34.6607 58.1501 34.4372 57.8262 34.2824 57.4533C34.1276 57.0804 34.0502 56.6728 34.0502 56.2312C34.0502 55.6517 34.1362 55.1497 34.3082 54.7254C34.4859 54.2949 34.7238 53.9394 35.0219 53.6581C35.3258 53.3714 35.6726 53.1593 36.0625 53.0214C36.458 52.8839 36.8708 52.8148 37.3008 52.8148C37.7078 52.8148 38.0804 52.861 38.4187 52.9527C38.7569 53.0388 39.0436 53.1478 39.2786 53.2797L38.8744 54.4414C38.7713 54.3842 38.6337 54.3265 38.4617 54.2692C38.2897 54.2119 38.1148 54.1661 37.9371 54.1317C37.7594 54.0915 37.6017 54.0713 37.4641 54.0713C37.1202 54.0713 36.8163 54.1144 36.5526 54.2005C36.2889 54.2866 36.0653 54.4154 35.8819 54.5876C35.7041 54.7598 35.5694 54.9751 35.4777 55.233C35.386 55.4854 35.3401 55.7809 35.3401 56.1194C35.3401 56.4176 35.3917 56.6874 35.4949 56.9283C35.5981 57.1634 35.7414 57.3644 35.9249 57.5307C36.1141 57.697 36.3348 57.823 36.587 57.9091C36.845 57.9952 37.1288 58.0383 37.4384 58.0383C37.6161 58.0383 37.7794 58.0268 37.9285 58.0039C38.0776 57.9751 38.2037 57.932 38.3069 57.8748V57.1089H37.2148V55.9041H39.5712V58.5802Z" fill="white"/>
<path d="M43.7838 52.8839H48.1011V54.0887H45.0308V55.4396H47.7482V56.6443H45.0308V58.0126H48.2214V59.2173H43.7838V52.8839Z" fill="white"/>
<path d="M52.8908 54.4154C52.65 54.2835 52.4037 54.1744 52.1515 54.0887C51.9047 54.0026 51.6726 53.9596 51.4547 53.9596C51.1855 53.9596 50.9732 54.0141 50.8184 54.1231C50.6637 54.2321 50.5863 54.3956 50.5863 54.6137C50.5863 54.7626 50.6436 54.8973 50.7584 55.0178C50.8788 55.1327 51.0304 55.2358 51.214 55.3278C51.403 55.4195 51.598 55.5028 51.799 55.5771C51.9821 55.6462 52.1629 55.7292 52.3405 55.8267C52.5241 55.9188 52.6875 56.0361 52.8308 56.1795C52.9741 56.3173 53.0886 56.4923 53.1746 56.7044C53.2607 56.911 53.3037 57.1662 53.3037 57.4703C53.3037 57.7918 53.2204 58.0901 53.0542 58.3654C52.888 58.6407 52.6445 58.8643 52.3232 59.0365C52.0022 59.2028 51.6067 59.2861 51.1366 59.2861C50.8958 59.2861 50.6495 59.2632 50.3972 59.2174C50.1505 59.1657 49.907 59.091 49.6662 58.9934C49.4254 58.8903 49.1933 58.7612 48.9695 58.6063L49.5197 57.6338C49.669 57.7429 49.8296 57.8404 50.0013 57.9265C50.1794 58.0067 50.357 58.0699 50.5346 58.1157C50.7122 58.1616 50.8757 58.1845 51.0249 58.1845C51.1737 58.1845 51.3229 58.1647 51.4721 58.1244C51.6268 58.0786 51.7528 58.004 51.8503 57.9005C51.9537 57.7974 52.005 57.654 52.005 57.4703C52.005 57.3443 51.962 57.2294 51.8763 57.1263C51.7958 57.0228 51.6841 56.9284 51.5408 56.8423C51.403 56.7562 51.2515 56.6815 51.0849 56.6183C50.8903 56.544 50.6894 56.4579 50.4829 56.3604C50.2769 56.2628 50.0818 56.1451 49.8983 56.0076C49.7207 55.8642 49.5742 55.6893 49.4597 55.4827C49.3508 55.2702 49.2963 55.0122 49.2963 54.7081C49.2963 54.3411 49.3765 54.0228 49.5371 53.753C49.7033 53.4832 49.9354 53.2711 50.2338 53.1162C50.5319 52.9555 50.8757 52.8666 51.2657 52.8496C51.7757 52.8496 52.1886 52.9096 52.504 53.0301C52.8249 53.1506 53.1115 53.294 53.3637 53.4603L52.8908 54.4154Z" fill="white"/>
<path d="M54.0947 52.8839H58.3603V54.0887H56.8208V59.2173H55.5738V54.0887H54.0947V52.8839Z" fill="white"/>
<path d="M58.3374 59.2173L61.1925 52.6343H61.2612L64.1163 59.2173H62.6716L60.8487 54.5875L61.7515 53.9682L59.5674 59.2173H58.3374ZM60.2898 56.9283H62.19L62.6286 57.9782H59.9025L60.2898 56.9283Z" fill="white"/>
<path d="M64.0966 52.8839H68.3621V54.0887H66.8226V59.2173H65.5756V54.0887H64.0966V52.8839Z" fill="white"/>
<path d="M69.5653 52.8839H73.8822V54.0887H70.8123V55.4396H73.5296V56.6443H70.8123V58.0126H74.0025V59.2173H69.5653V52.8839Z" fill="white"/>
<path d="M26.1379 0.490234L0 19.5646V48.7183H11.8362V42.3667L6.32649 42.3466V22.6468L26.1379 8.31983L45.9489 22.6468V42.3466L37.5 42.3667V48.7183H52.2754V19.5646L26.1379 0.490234Z" fill="white"/>
<path d="M48.8621 0.490234L22.7246 19.5646V48.7183H37.5001V42.3667L29.0511 42.3466V22.6468L48.8621 8.31983L68.6736 22.6468V42.3466L63.2981 42.3667V48.7183H75V19.5646L48.8621 0.490234Z" fill="white"/>
<path d="M36.7585 24.6045H32.3328V29.0332H36.7585V24.6045Z" fill="white"/>
<path d="M42.4607 24.6045H38.0349V29.0332H42.4607V24.6045Z" fill="white"/>
<path d="M36.7585 30.2004H32.3328V34.6291H36.7585V30.2004Z" fill="white"/>
<path d="M42.4607 30.2004H38.0349V34.6291H42.4607V30.2004Z" fill="white"/>
<path d="M63.2996 48.7182H56.9731V22.7457L63.2996 27.3511V48.7182Z" fill="white"/>
<path d="M11.8362 48.7182H18.1233V22.7457L11.7969 27.3511L11.8362 48.7182Z" fill="white"/>
</svg>
